<?xml version="1.0" encoding="UTF-8" standalone="no"?>
<!DOCTYPE svg PUBLIC "-//W3C//DTD SVG 1.1//EN" "http://www.w3.org/Graphics/SVG/1.1/DTD/svg11.dtd">
<svg width="100%" height="100%" viewBox="0 0 73 72" version="1.1" xmlns="http://www.w3.org/2000/svg" xmlns:xlink="http://www.w3.org/1999/xlink" xml:space="preserve" xmlns:serif="http://www.serif.com/" style="fill-rule:evenodd;clip-rule:evenodd;stroke-linejoin:round;stroke-miterlimit:2;">
    <g transform="matrix(1,0,0,1,-81,0)">
        <g id="W" transform="matrix(1.125,0,0,1.125,81.284,0)">
            <rect x="0" y="0" width="64" height="64" style="fill:none;"/>
            <g transform="matrix(0.888889,0,0,0.888889,-72.2524,0)">
                <path d="M117.284,4C134.945,4 149.284,18.339 149.284,36C149.284,53.661 134.945,68 117.284,68C99.623,68 85.284,53.661 85.284,36C85.284,18.339 99.623,4 117.284,4ZM107.01,56.049C109.326,56.049 110.642,54.903 111.349,52.32L117.174,31.553L117.394,31.553L123.243,52.32C123.95,54.952 125.242,56.049 127.606,56.049C129.873,56.049 131.14,54.928 131.872,52.344L139.233,25.679C139.476,24.753 139.623,23.875 139.623,23.242C139.623,21.194 138.233,19.927 135.991,19.927C134.065,19.927 132.895,20.975 132.432,23.095L127.168,45.885L126.973,45.885L121.05,23.169C120.514,20.999 119.295,19.927 117.296,19.927C115.249,19.927 114.079,20.926 113.518,23.217L107.595,45.885L107.4,45.885L102.136,23.095C101.697,20.999 100.527,19.927 98.602,19.927C96.359,19.927 94.97,21.194 94.97,23.242C94.97,23.9 95.116,24.777 95.36,25.679L102.696,52.295C103.428,54.928 104.695,56.049 107.01,56.049Z" style="fill:rgb(128,128,128);"/>
            </g>
        </g>
    </g>
</svg>
