<?xml version="1.0" encoding="UTF-8" standalone="no"?>
<!DOCTYPE svg PUBLIC "-//W3C//DTD SVG 1.1//EN" "http://www.w3.org/Graphics/SVG/1.1/DTD/svg11.dtd">
<svg width="100%" height="100%" viewBox="0 0 32 32" version="1.1" xmlns="http://www.w3.org/2000/svg" xmlns:xlink="http://www.w3.org/1999/xlink" xml:space="preserve" xmlns:serif="http://www.serif.com/" style="fill-rule:evenodd;clip-rule:evenodd;stroke-linejoin:round;stroke-miterlimit:2;">
    <rect id="Artboard1" x="0" y="0" width="32" height="32" style="fill:none;"/>
    <g id="Artboard11" serif:id="Artboard1">
        <g transform="matrix(0.0377276,0,0,0.0377276,25.0501,8.64164)">
            <path d="M0,390.078L-37.469,427.627C-37.469,427.627 -125.103,335.03 -186.871,270.579L-186.871,508.47C-186.871,508.47 -199.238,527.029 -239.881,527.029C-280.523,527.029 -292.893,508.47 -292.893,508.47L-292.893,274.679C-354.903,338.526 -439.116,425.865 -439.116,425.865L-476.611,388.37C-476.611,388.37 -353.964,271.974 -292.893,212.82L-292.893,164.456C-322.61,135.886 -358.88,101.219 -390.781,70.782C-392.898,73.496 -394.638,75.703 -395.822,76.896C-399.248,80.348 -407.392,84.709 -412.692,90.039L-437.652,115.082C-437.652,115.082 -449.856,109.146 -468.604,90.399C-487.682,71.318 -493.011,57.871 -493.011,57.871C-493.011,57.871 -469.902,35.95 -468.963,33.767C-468.051,31.588 -459.299,20.323 -456.813,17.81C-455.825,16.82 -453.882,15.461 -451.059,13.337C-462.27,2.664 -469.019,-3.754 -469.019,-3.754L-431.551,-41.332C-431.551,-41.332 -424.793,-34.368 -413.62,-22.866C-410.68,-26.217 -409.048,-28.215 -409.048,-28.215C-409.048,-28.215 -399.053,-38.846 -394.056,-41.359C-389.058,-43.844 -368.766,-66.705 -368.766,-66.705C-368.766,-66.705 -355.651,-61.071 -336.27,-42.324C-317.189,-23.881 -311.224,-11.677 -311.224,-11.677C-311.224,-11.677 -335.274,11.155 -337.76,14.913C-340.271,18.666 -339.332,20.24 -343.392,24.3C-345.341,26.263 -350.617,30.689 -356.604,35.795C-336.251,56.718 -314.008,79.568 -292.893,101.222L-292.893,55.223L-259.762,48.596C-259.759,48.592 -257.11,42.412 -257.11,37.993C-257.11,33.576 -255.785,-144.013 -255.785,-147.548C-255.785,-151.082 -246.95,-151.523 -239.881,-151.523C-232.812,-151.523 -223.977,-151.082 -223.977,-147.548L-223.977,37.993C-223.977,43.278 -222.055,47.246 -221.491,48.299L-186.871,55.223L-186.871,104.438C-164.972,81.526 -141.61,57.011 -120.318,34.64C-123.028,32.515 -125.236,30.767 -126.431,29.572C-129.855,26.149 -134.241,18.032 -139.544,12.702L-164.561,-12.285C-164.561,-12.285 -158.622,-24.489 -139.906,-43.29C-120.851,-62.398 -107.437,-67.727 -107.437,-67.727C-107.437,-67.727 -85.564,-44.589 -83.383,-43.65C-81.178,-42.711 -69.938,-33.959 -67.43,-31.475C-66.45,-30.483 -65.091,-28.531 -62.963,-25.692C-52.304,-36.919 -45.892,-43.677 -45.892,-43.677L-8.397,-6.182C-8.397,-6.182 -15.35,0.585 -26.831,11.772C-23.482,14.714 -21.484,16.348 -21.484,16.348C-21.484,16.348 -10.879,26.341 -8.37,31.367C-5.857,36.365 16.95,56.658 16.95,56.658C16.95,56.658 11.316,69.801 -7.4,89.21C-25.821,108.317 -37.996,114.282 -37.996,114.282C-37.996,114.282 -60.799,90.204 -64.555,87.719C-68.311,85.208 -69.857,86.144 -73.917,82.087C-75.866,80.136 -80.293,74.849 -85.395,68.848C-118.534,101.174 -156.53,138.278 -186.871,168.024L-186.871,208.599C-127.485,266.814 0,390.078 0,390.078" style="fill:rgb(0,0,51);"/>
        </g>
        <g transform="matrix(0.0404224,0,0,0.0404224,25.6965,8.11605)">
            <path d="M-243.282,-163.649C-387.018,-161.685 -502.51,-35.161 -502.51,120.078C-502.51,120.078 -502.51,270.002 -502.51,270.002C-502.51,426.464 -385.195,553.751 -239.881,553.751C-94.567,553.751 22.751,426.464 22.751,270.002C22.751,270.002 22.751,120.078 22.751,120.078C22.751,-35.161 -92.744,-161.685 -236.48,-163.649L-239.881,-163.673L-243.282,-163.649ZM-232.475,-188.311L-236.173,-188.386L-239.881,-188.411C-398.335,-188.411 -527.248,-50.529 -527.248,120.078L-527.248,270.002C-527.248,440.612 -398.335,578.489 -239.881,578.489C-81.427,578.489 47.489,440.612 47.489,270.002L47.489,120.078C47.489,-47.868 -77.436,-184.101 -232.475,-188.311Z" style="fill:rgb(0,0,51);"/>
        </g>
    </g>
</svg>
